<svg xmlns="http://www.w3.org/2000/svg" viewBox="0 0 512 512" width="512" height="512">
  <defs>
    <linearGradient id="bg" x1="0" y1="0" x2="1" y2="1">
      <stop offset="0%" stop-color="#F5F0E8"/>
      <stop offset="100%" stop-color="#E8D7C3"/>
    </linearGradient>
  </defs>
  <!-- Background -->
  <rect width="512" height="512" rx="108" fill="url(#bg)"/>
  <!-- House body -->
  <rect x="136" y="230" width="240" height="180" rx="18" fill="#D4B896"/>
  <!-- Roof -->
  <path d="M108 245 L256 130 L404 245" fill="none" stroke="#C4A67A" stroke-width="28" stroke-linecap="round" stroke-linejoin="round"/>
  <!-- Door -->
  <rect x="222" y="310" width="68" height="100" rx="12" fill="#FFF8F0"/>
  <!-- Door knob -->
  <circle cx="278" cy="365" r="6" fill="#C4A67A"/>
  <!-- Window left -->
  <rect x="158" y="270" width="48" height="48" rx="8" fill="#FFF8F0"/>
  <line x1="182" y1="270" x2="182" y2="318" stroke="#E8D7C3" stroke-width="3"/>
  <line x1="158" y1="294" x2="206" y2="294" stroke="#E8D7C3" stroke-width="3"/>
  <!-- Window right -->
  <rect x="306" y="270" width="48" height="48" rx="8" fill="#FFF8F0"/>
  <line x1="330" y1="270" x2="330" y2="318" stroke="#E8D7C3" stroke-width="3"/>
  <line x1="306" y1="294" x2="354" y2="294" stroke="#E8D7C3" stroke-width="3"/>
  <!-- Coin circle -->
  <circle cx="380" cy="150" r="56" fill="#C4A67A" stroke="#8B7355" stroke-width="5"/>
  <circle cx="380" cy="150" r="44" fill="none" stroke="#8B7355" stroke-width="2.5" stroke-dasharray="6 4"/>
  <!-- Yen symbol -->
  <text x="380" y="168" font-family="Arial,sans-serif" font-size="56" font-weight="bold" fill="#6B5740" text-anchor="middle">¥</text>
  <!-- Heart -->
  <path d="M248 180 C248 170, 236 158, 224 166 C212 158, 200 170, 200 180 C200 198, 224 214, 224 214 C224 214, 248 198, 248 180Z" fill="#E8A0BF" opacity="0.8"/>
</svg>
